<svg width="479" height="187" viewBox="0 0 479 187" fill="none" xmlns="http://www.w3.org/2000/svg">
<path d="M143.405 121.557V140.857H121.606V184H101.171V140.857H0.353294V121.557L98.8999 2.3473H121.606V121.557H143.405ZM24.4223 121.557H101.171V27.3245L24.4223 121.557ZM239.106 186.271C225.936 186.271 213.75 182.562 202.548 175.144C191.498 167.576 182.642 156.752 175.982 142.674C169.472 128.445 166.218 111.869 166.218 92.9466C166.218 74.1758 169.472 57.7514 175.982 43.6733C182.642 29.5952 191.498 18.8474 202.548 11.4299C213.75 3.86106 225.936 0.0766294 239.106 0.0766294C252.276 0.0766294 264.386 3.86106 275.436 11.4299C286.638 18.8474 295.57 29.5952 302.23 43.6733C309.042 57.7514 312.448 74.1758 312.448 92.9466C312.448 111.869 309.118 128.369 302.457 142.447C295.797 156.525 286.865 167.349 275.664 174.917C264.462 182.486 252.276 186.271 239.106 186.271ZM239.106 165.608C249.551 165.608 258.709 162.656 266.581 156.752C274.604 150.697 280.81 142.22 285.2 131.321C289.59 120.27 291.785 107.479 291.785 92.9466C291.785 78.5657 289.59 65.9257 285.2 55.0266C280.81 44.1274 274.604 35.726 266.581 29.8223C258.709 23.7672 249.551 20.7396 239.106 20.7396C228.51 20.7396 219.276 23.6915 211.404 29.5952C203.532 35.4989 197.477 43.9004 193.239 54.7995C189 65.6987 186.881 78.4144 186.881 92.9466C186.881 107.63 189 120.422 193.239 131.321C197.477 142.22 203.532 150.697 211.404 156.752C219.276 162.656 228.51 165.608 239.106 165.608ZM478.238 121.557V140.857H456.44V184H436.004V140.857H335.187V121.557L433.733 2.3473H456.44V121.557H478.238ZM359.256 121.557H436.004V27.3245L359.256 121.557Z" fill="black"/>
</svg>
