<svg width="256" height="84" viewBox="0 0 256 84" fill="none" xmlns="http://www.w3.org/2000/svg">
<rect y="0.241211" width="256" height="83.5177" rx="9.07801" fill="#F2F2F2"/>
<path d="M51.6911 52.8291C49.9845 56.5329 47.5516 59.3652 44.3924 61.3261C41.2696 63.2506 37.5294 64.2129 33.172 64.2129C29.0687 64.2129 25.5464 63.2688 22.6052 61.3806C19.6639 59.4923 17.4307 56.896 15.9056 53.5916C14.3805 50.2509 13.6179 46.4563 13.6179 42.2078C13.6179 37.9956 14.3805 34.2736 15.9056 31.0418C17.4307 27.7737 19.6639 25.2319 22.6052 23.4163C25.5464 21.5644 29.0687 20.6384 33.172 20.6384C37.6384 20.6384 41.433 21.6552 44.5558 23.6886C47.715 25.6858 50.2023 28.7905 52.0179 33.0027L45.9175 36.9788C44.6829 33.5292 43.0489 31.1145 41.0154 29.7346C38.9819 28.3547 36.3674 27.6648 33.172 27.6648C30.8117 27.6648 28.6693 28.1913 26.7447 29.2444C24.8565 30.2974 23.3496 31.9133 22.2239 34.092C21.1345 36.2345 20.5899 38.9397 20.5899 42.2078C20.5899 47.2915 21.7881 51.0679 24.1847 53.5371C26.6177 55.9701 29.7405 57.1865 33.5533 57.1865C36.5308 57.1865 38.9819 56.5329 40.9064 55.2257C42.831 53.9184 44.3561 51.7942 45.4818 48.8529L51.6911 52.8291ZM94.5405 34.8001C94.5405 37.6325 93.7961 39.9746 92.3073 41.8265C90.8185 43.6784 88.7669 45.1127 86.1524 46.1295L93.9413 64.2129H86.2613L79.1805 47.818C77.8733 47.9632 76.4026 48.0359 74.7686 48.0359H64.3652V64.2129H57.4477V20.6384H74.7686C80.5422 20.6384 85.2809 21.6552 88.9847 23.6886C92.6886 25.6858 94.5405 29.3896 94.5405 34.8001ZM74.7686 41.3908C77.7825 41.3908 80.1609 41.1547 81.9039 40.6827C83.6469 40.2106 84.8815 39.4844 85.6077 38.504C86.3703 37.4872 86.7515 36.18 86.7515 34.5823C86.7515 32.222 85.8437 30.4608 84.0281 29.2988C82.2125 28.1369 79.126 27.5559 74.7686 27.5559H64.3652V41.3908H74.7686ZM137.638 64.2129L133.118 53.755H112.038L107.518 64.2129H100.001L118.738 20.6384H126.309L145.155 64.2129H137.638ZM115.034 46.7831L130.067 46.7286L122.551 29.2988L115.034 46.7831ZM184.193 20.6384L162.079 57.4588L184.193 57.4044V64.2129H150.586L172.972 27.4469H151.512V20.6929L177.112 20.6384H184.193ZM219.259 20.6384H227.157L211.906 48.9618V64.104H204.88V48.9618L189.629 20.6384H197.2L208.366 42.4257L219.259 20.6384ZM237.019 64.2129C235.785 64.2129 234.732 63.7953 233.86 62.9601C233.025 62.0886 232.607 61.0356 232.607 59.801C232.607 58.6027 233.025 57.5859 233.86 56.7508C234.732 55.9156 235.785 55.498 237.019 55.498C238.217 55.498 239.234 55.9156 240.069 56.7508C240.905 57.5859 241.322 58.6027 241.322 59.801C241.322 61.0356 240.905 62.0886 240.069 62.9601C239.234 63.7953 238.217 64.2129 237.019 64.2129Z" fill="black"/>
</svg>
