<svg width="418" height="417" viewBox="0 0 418 417" fill="none" xmlns="http://www.w3.org/2000/svg">
<rect width="417" height="417" transform="translate(0.5)" fill="white"/>
<rect x="13.3301" y="12.8311" width="392.942" height="392.942" rx="39.8135" fill="#E9E9E9"/>
<path d="M198.466 252.596C191.209 268.345 180.864 280.388 167.432 288.725C154.154 296.908 138.251 301 119.723 301C102.276 301 87.2995 296.986 74.7932 288.957C62.287 280.928 52.7916 269.889 46.3069 255.839C39.8222 241.634 36.5798 225.5 36.5798 207.435C36.5798 189.525 39.8222 173.699 46.3069 159.958C52.7916 146.062 62.287 135.254 74.7932 127.534C87.2995 119.66 102.276 115.723 119.723 115.723C138.714 115.723 154.848 120.046 168.127 128.692C181.559 137.184 192.135 150.385 199.855 168.295L173.917 185.202C168.667 170.534 161.719 160.267 153.073 154.399C144.427 148.532 133.31 145.599 119.723 145.599C109.687 145.599 100.578 147.838 92.3946 152.315C84.3659 156.793 77.9584 163.663 73.1721 172.927C68.5401 182.037 66.2242 193.539 66.2242 207.435C66.2242 229.051 71.3193 245.108 81.5095 255.607C91.8542 265.952 105.132 271.124 121.344 271.124C134.005 271.124 144.427 268.345 152.61 262.787C160.793 257.228 167.277 248.196 172.064 235.69L198.466 252.596ZM380.66 175.938C380.66 187.981 377.495 197.94 371.164 205.814C364.834 213.688 356.111 219.787 344.994 224.11L378.112 301H345.457L315.35 231.289C309.791 231.907 303.538 232.216 296.59 232.216H252.355V301H222.943V115.723H296.59C321.14 115.723 341.288 120.046 357.037 128.692C372.786 137.184 380.66 152.933 380.66 175.938ZM296.59 203.961C309.405 203.961 319.518 202.957 326.929 200.95C334.341 198.943 339.59 195.855 342.678 191.686C345.92 187.363 347.541 181.805 347.541 175.012C347.541 164.976 343.682 157.487 335.962 152.547C328.242 147.606 315.118 145.136 296.59 145.136H252.355V203.961H296.59Z" fill="black"/>
</svg>
