<svg width="141" height="46" viewBox="0 0 141 46" fill="none" xmlns="http://www.w3.org/2000/svg">
<rect width="141" height="46" rx="5" fill="white"/>
<path d="M28.47 28.73C27.53 30.77 26.19 32.33 24.45 33.41C22.73 34.47 20.67 35 18.27 35C16.01 35 14.07 34.48 12.45 33.44C10.83 32.4 9.6 30.97 8.76 29.15C7.92 27.31 7.5 25.22 7.5 22.88C7.5 20.56 7.92 18.51 8.76 16.73C9.6 14.93 10.83 13.53 12.45 12.53C14.07 11.51 16.01 11 18.27 11C20.73 11 22.82 11.56 24.54 12.68C26.28 13.78 27.65 15.49 28.65 17.81L25.29 20C24.61 18.1 23.71 16.77 22.59 16.01C21.47 15.25 20.03 14.87 18.27 14.87C16.97 14.87 15.79 15.16 14.73 15.74C13.69 16.32 12.86 17.21 12.24 18.41C11.64 19.59 11.34 21.08 11.34 22.88C11.34 25.68 12 27.76 13.32 29.12C14.66 30.46 16.38 31.13 18.48 31.13C20.12 31.13 21.47 30.77 22.53 30.05C23.59 29.33 24.43 28.16 25.05 26.54L28.47 28.73ZM52.0706 18.8C52.0706 20.36 51.6606 21.65 50.8406 22.67C50.0206 23.69 48.8906 24.48 47.4506 25.04L51.7406 35H47.5106L43.6106 25.97C42.8906 26.05 42.0806 26.09 41.1806 26.09H35.4506V35H31.6406V11H41.1806C44.3606 11 46.9706 11.56 49.0106 12.68C51.0506 13.78 52.0706 15.82 52.0706 18.8ZM41.1806 22.43C42.8406 22.43 44.1506 22.3 45.1106 22.04C46.0706 21.78 46.7506 21.38 47.1506 20.84C47.5706 20.28 47.7806 19.56 47.7806 18.68C47.7806 17.38 47.2806 16.41 46.2806 15.77C45.2806 15.13 43.5806 14.81 41.1806 14.81H35.4506V22.43H41.1806ZM75.8081 35L73.3181 29.24H61.7081L59.2181 35H55.0781L65.3981 11H69.5681L79.9481 35H75.8081ZM63.3581 25.4L71.6381 25.37L67.4981 15.77L63.3581 25.4ZM101.449 11L89.2695 31.28L101.449 31.25V35H82.9395L95.2695 14.75H83.4495V11.03L97.5495 11H101.449ZM120.763 11H125.113L116.713 26.6V34.94H112.843V26.6L104.443 11H108.613L114.763 23L120.763 11ZM130.545 35C129.865 35 129.285 34.77 128.805 34.31C128.345 33.83 128.115 33.25 128.115 32.57C128.115 31.91 128.345 31.35 128.805 30.89C129.285 30.43 129.865 30.2 130.545 30.2C131.205 30.2 131.765 30.43 132.225 30.89C132.685 31.35 132.915 31.91 132.915 32.57C132.915 33.25 132.685 33.83 132.225 34.31C131.765 34.77 131.205 35 130.545 35Z" fill="black"/>
</svg>
